<svg width="492" height="487" viewBox="0 0 492 487" fill="none" xmlns="http://www.w3.org/2000/svg">
  <path
    d="M78.3871 139.016C66.5534 64.2061 104.595 -46.5893 207.864 21.495C253.615 51.6579 330.927 20.7082 344.481 88.6508C358.034 156.593 316.174 160.888 234.001 177.28C143.062 195.421 95.8844 249.63 78.3871 139.016Z"
    fill="#FFBCE4"/>
  <path
    d="M78.3871 139.016C66.5534 64.2061 104.595 -46.5893 207.864 21.495C253.615 51.6579 330.927 20.7082 344.481 88.6508C358.034 156.593 316.174 160.888 234.001 177.28C143.062 195.421 95.8844 249.63 78.3871 139.016Z"
    fill="#FFBCE4"/>
  <path
    d="M409.494 78.0745C492 112.279 539 188 419 284C362.398 329.282 351.087 474.182 274.201 446.656C197.314 419.129 222.2 363.53 263.147 249.156C308.462 122.582 287.5 27.5 409.494 78.0745Z"
    fill="#FEE6F4"/>
  <path
    d="M409.494 78.0745C492 112.279 539 188 419 284C362.398 329.282 351.087 474.182 274.201 446.656C197.314 419.129 222.2 363.53 263.147 249.156C308.462 122.582 287.5 27.5 409.494 78.0745Z"
    fill="#FEE6F4"/>
  <path
    d="M240.579 486.618C125.92 460.793 206.5 381 49 355C-61.5 318.5 39.8409 185.251 124.76 155.544C209.68 125.837 231.483 194.835 263.465 286.259C298.86 387.435 383.379 458.929 240.579 486.618Z"
    fill="#F6F2FC"/>
</svg>
